# xmcd CD database file
#
# Track frame offsets:
#	150
#	24468
#	47265
#	64668
#	91101
#	124080
#	144961
#	160971
#	177345
#	191117
#	203388
#	222822
#	241815
#	262938
#	279204
#	302886
#	334752
#	347394
#
# Disc length: 4819 seconds
#
# Revision: 7
# Processed by: cddbd v1.5.2PL0 Copyright (c) Steve Scherf et al.
# Submitted via: CDex 1.93
#
DISCID=ed12d112
DTITLE=Saturn -  BarJazz Edition [CD1]
DYEAR=2002
DGENRE=Jazz
TTITLE0=Stan Getz and Joao Gilberto, feat. Astrud Gilberto - The Girl from Ipanema
TTITLE1=Coleman Hawkins and Ben Webster - La Rosita
TTITLE2=Oscar Peterson - Samba De Orfeu
TTITLE3=Diana Krall - Peel Me A Grape
TTITLE4=Les McCann - Sunny
TTITLE5=Cal Tjader - Soul Burst
TTITLE6=Oscar Peterson Trio and Lester Young - Stardust
TTITLE7=Nina Simone - My Baby Just Cares For Me
TTITLE8=Toni Harper - A Foggy Day
TTITLE9=Chet Baker - The Touch Of Your Lips
TTITLE10=John Coltrane - Say It (Over And Over Again)
TTITLE11=Stan Getz and Joao Gilberto - Desafinado
TTITLE12=Dr. John - Blue Skies
TTITLE13=Oscar Peterson Trio and The Singers Unlimited - Once Upon A Summertime
TTITLE14=Love Unlimited Orchestra - Midnight And You
TTITLE15=George Benson - One On One
TTITLE16=Laura Fygi - Let There Be Love
TTITLE17=Oscar Brown Jr. - Beautiful Girl
EXTD=Saturn Exclusiv Edition YEAR: 2002
EXTT0=
EXTT1=
EXTT2=
EXTT3=
EXTT4=
EXTT5=
EXTT6=
EXTT7=
EXTT8=
EXTT9=
EXTT10=
EXTT11=
EXTT12=
EXTT13=
EXTT14=
EXTT15=
EXTT16=
EXTT17=
PLAYORDER=
